<?xml version="1.0" standalone="no"?>
<!DOCTYPE svg PUBLIC "-//W3C//DTD SVG 20010904//EN"
 "http://www.w3.org/TR/2001/REC-SVG-20010904/DTD/svg10.dtd">
<svg version="1.0" xmlns="http://www.w3.org/2000/svg"
 width="1108.000000pt" height="1108.000000pt" viewBox="0 0 1108.000000 1108.000000"
 preserveAspectRatio="xMidYMid meet">
<metadata>
Created by potrace 1.14, written by Peter Selinger 2001-2017
</metadata>
<g transform="translate(0.000000,1108.000000) scale(0.100000,-0.100000)"
fill="#000000" stroke="none">
<path d="M5447 8675 c-1 -1 -54 -5 -117 -9 -63 -3 -124 -8 -135 -10 -11 -2
-47 -7 -80 -10 -207 -23 -521 -106 -755 -201 -205 -83 -363 -168 -565 -301
-99 -66 -155 -108 -295 -222 -86 -70 -316 -308 -403 -417 -211 -265 -361 -524
-482 -835 -46 -119 -98 -279 -109 -336 -2 -10 -9 -39 -16 -64 -16 -60 -30
-129 -45 -217 -11 -73 -14 -90 -20 -143 -21 -169 -26 -505 -11 -645 23 -208
40 -311 81 -479 25 -105 94 -329 115 -371 5 -11 21 -49 36 -85 201 -493 564
-963 999 -1292 74 -55 254 -176 315 -211 92 -52 257 -136 320 -162 36 -15 79
-33 95 -40 17 -7 46 -18 65 -25 19 -7 44 -16 55 -21 66 -28 363 -107 465 -123
19 -3 46 -8 60 -11 14 -3 45 -8 70 -11 25 -3 56 -7 70 -9 155 -25 630 -25 759
0 13 2 49 7 80 11 31 3 63 8 71 9 231 47 370 84 530 142 136 49 165 62 315
133 189 91 373 206 565 354 100 77 411 379 475 461 279 356 442 652 565 1025
33 98 95 341 106 415 5 28 9 52 9 55 1 3 5 32 9 65 4 33 9 70 11 83 24 151 24
593 0 722 -2 14 -6 45 -9 70 -7 56 -30 190 -42 240 -3 14 -7 33 -9 42 -10 47
-58 214 -88 303 -195 575 -580 1109 -1062 1474 -22 17 -44 34 -50 39 -165 128
-467 295 -690 382 -60 23 -119 46 -130 51 -56 23 -297 90 -369 103 -16 3 -52
10 -80 15 -108 22 -240 39 -351 47 -76 6 -323 12 -328 9z m-1242 -1060 c33 -3
76 -8 95 -10 19 -3 55 -7 80 -10 52 -6 104 -12 175 -21 28 -3 64 -7 80 -8 17
-2 53 -6 80 -9 52 -7 104 -13 190 -22 28 -3 66 -8 85 -10 19 -2 58 -7 85 -10
28 -3 86 -10 130 -15 44 -5 107 -12 140 -16 33 -4 69 -8 80 -10 11 -1 32 -3
48 -3 l27 -1 0 -1930 c0 -1061 -3 -1930 -8 -1930 -8 0 -152 -17 -207 -24 -16
-3 -57 -7 -90 -11 -33 -3 -73 -8 -90 -10 -16 -2 -57 -7 -90 -10 -33 -3 -71 -8
-85 -10 -14 -3 -50 -7 -80 -10 -78 -8 -151 -16 -180 -20 -14 -2 -54 -6 -90
-10 -36 -3 -72 -8 -80 -10 -8 -2 -44 -6 -80 -10 -36 -3 -78 -8 -95 -10 -75 -9
-162 -18 -189 -19 l-28 -1 0 2070 c1 1139 1 2078 1 2088 1 13 7 17 19 13 9 -2
44 -7 77 -11z m1648 -189 c26 -4 68 -8 95 -12 26 -3 63 -7 82 -10 19 -2 60 -6
90 -9 30 -3 64 -7 75 -9 11 -2 54 -7 95 -11 41 -4 83 -9 93 -11 10 -2 48 -6
85 -9 37 -3 74 -8 82 -10 8 -2 44 -7 80 -10 36 -4 79 -9 95 -11 17 -2 59 -6
95 -10 36 -3 73 -8 84 -10 10 -2 49 -6 86 -10 38 -3 83 -9 102 -13 l33 -7 0
-1737 c0 -1152 -3 -1737 -10 -1738 -5 0 -19 -2 -30 -4 -11 -2 -45 -7 -75 -10
-30 -3 -66 -7 -80 -10 -14 -2 -52 -7 -85 -10 -54 -5 -81 -8 -180 -20 -16 -2
-57 -6 -90 -10 -33 -4 -71 -9 -85 -11 -14 -2 -54 -6 -90 -9 -36 -3 -76 -8 -90
-10 -14 -2 -52 -7 -85 -10 -33 -4 -71 -8 -85 -10 -14 -2 -54 -7 -90 -10 -36
-4 -73 -9 -84 -11 -28 -5 -156 -17 -196 -18 l-35 -1 0 1898 0 1897 35 -4 c19
-3 56 -7 83 -10z"/>
</g>
</svg>
